<?xml version="1.0" standalone="no"?>
<!DOCTYPE svg PUBLIC "-//W3C//DTD SVG 20010904//EN"
 "http://www.w3.org/TR/2001/REC-SVG-20010904/DTD/svg10.dtd">
<svg version="1.0" xmlns="http://www.w3.org/2000/svg"
 width="512.000000pt" height="512.000000pt" viewBox="0 0 512.000000 512.000000"
 preserveAspectRatio="xMidYMid meet">
<metadata>
Created by potrace 1.14, written by Peter Selinger 2001-2017
</metadata>
<g transform="translate(0.000000,512.000000) scale(0.100000,-0.100000)"
fill="#000000" stroke="none">
<path d="M790 5101 c-86 -28 -132 -55 -193 -116 -62 -62 -110 -148 -127 -228
-12 -59 -10 -4374 3 -4417 45 -157 191 -295 347 -329 29 -7 668 -10 1840 -8
l1795 2 49 25 c27 14 66 44 87 68 75 86 69 -128 69 2457 0 2629 8 2389 -83
2479 -96 94 93 86 -1941 85 -1674 -1 -1795 -2 -1846 -18z m3645 -206 l25 -24
0 -1950 0 -1950 -24 -28 -24 -28 -1674 0 -1673 0 -5 798 -5 799 -32 28 c-43
39 -96 35 -135 -9 l-28 -31 0 -794 0 -794 -39 -7 c-21 -3 -66 -19 -100 -35
l-61 -29 0 1937 0 1937 24 51 c13 28 37 63 52 78 30 28 95 66 114 66 7 0 10
-250 10 -789 l0 -789 31 -31 c51 -51 123 -39 157 26 9 16 12 232 12 807 l0
786 1675 0 1676 0 24 -25z m23 -4478 c-3 -177 -3 -178 -28 -197 -19 -15 -42
-20 -97 -20 l-73 0 0 258 0 258 68 -1 c37 -1 81 2 97 5 l30 6 3 -66 c2 -36 2
-145 0 -243z m-400 40 l2 -257 -1607 2 -1608 3 -40 22 c-87 47 -137 125 -141
221 -5 123 73 229 193 261 13 3 737 6 1610 6 l1588 0 3 -258z"/>
<path d="M2632 4245 c-107 -24 -207 -80 -292 -165 l-75 -76 -45 14 c-56 17
-231 25 -287 12 -206 -47 -367 -190 -444 -395 -26 -68 -33 -233 -15 -318 36
-159 159 -318 304 -389 56 -28 62 -34 63 -62 0 -17 0 -281 0 -586 0 -342 4
-570 10 -594 13 -47 59 -91 108 -103 53 -13 1590 -9 1621 5 35 14 70 50 85 86
10 24 13 163 13 624 0 327 2 595 4 596 1 1 35 20 73 41 194 106 311 315 300
535 -5 103 -9 126 -39 200 -33 80 -95 169 -158 224 -60 54 -189 119 -263 135
-70 14 -240 8 -294 -12 l-44 -16 -76 77 c-150 152 -345 211 -549 167z m291
-224 c77 -37 148 -103 183 -172 42 -83 97 -100 179 -55 189 106 443 20 538
-182 29 -61 32 -76 32 -162 -1 -85 -4 -102 -32 -161 -49 -105 -151 -192 -250
-214 -52 -11 -93 -56 -93 -102 -1 -21 -2 -209 -3 -418 l-2 -380 -700 0 c-385
0 -708 1 -717 3 -15 4 -16 39 -16 414 0 475 6 447 -100 484 -120 41 -193 105
-246 214 -28 59 -31 74 -31 160 0 88 3 101 34 165 42 86 106 149 191 189 109
51 275 43 362 -18 29 -21 82 -20 114 1 14 9 36 37 49 62 46 92 154 177 252
200 21 5 72 8 113 6 61 -1 88 -8 143 -34z m555 -2146 l1 -100 -717 0 -717 1
-2 89 c-2 50 -1 95 1 100 2 7 240 10 719 10 l715 0 0 -100z"/>
<path d="M914 3004 c-96 -47 -55 -185 54 -184 46 1 92 51 92 100 0 34 -31 78
-63 90 -39 13 -46 13 -83 -6z"/>
</g>
</svg>
